<?xml version="1.0" encoding="utf-8"?>
<!-- Generator: Adobe Illustrator 19.1.0, SVG Export Plug-In . SVG Version: 6.00 Build 0)  -->
<!DOCTYPE svg PUBLIC "-//W3C//DTD SVG 1.1//EN" "http://www.w3.org/Graphics/SVG/1.1/DTD/svg11.dtd">
<svg version="1.1" id="Layer_1" xmlns="http://www.w3.org/2000/svg" xmlns:xlink="http://www.w3.org/1999/xlink" x="0px" y="0px"
	 viewBox="0 0 180.5 228.2" enable-background="new 0 0 180.5 228.2" xml:space="preserve">
<g>
	<g>
		<g>
			<g>
				
					<rect x="91" y="46.3" transform="matrix(0.9662 0.2578 -0.2578 0.9662 32.5318 -19.9291)" fill="#13110C" width="2.5" height="135.5"/>
			</g>
		</g>
		<g>
			<g>
				
					<rect x="91" y="46.4" transform="matrix(0.8662 0.4996 -0.4996 0.8662 69.3371 -30.8348)" fill="#13110C" width="2.5" height="135.5"/>
			</g>
		</g>
		<g>
			<g>
				
					<rect x="91" y="46.4" transform="matrix(0.7072 0.7071 -0.7071 0.7072 107.6789 -31.8224)" fill="#13110C" width="2.5" height="135.5"/>
			</g>
		</g>
		<g>
			<g>
				
					<rect x="91" y="46.4" transform="matrix(0.5004 0.8658 -0.8658 0.5004 144.8661 -22.877)" fill="#13110C" width="2.5" height="135.5"/>
			</g>
		</g>
		<g>
			<g>
				
					<rect x="91" y="46.4" transform="matrix(0.2589 0.9659 -0.9659 0.2589 178.5549 -4.5687)" fill="#13110C" width="2.5" height="135.5"/>
			</g>
		</g>
		<g>
			<g>
				<rect x="24.5" y="112.8" fill="#13110C" width="135.5" height="2.5"/>
			</g>
		</g>
		<g>
			<g>
				
					<rect x="24.5" y="112.8" transform="matrix(0.9659 0.2588 -0.2588 0.9659 32.6683 -19.9897)" fill="#13110C" width="135.5" height="2.5"/>
			</g>
		</g>
		<g>
			<g>
				
					<rect x="24.5" y="112.8" transform="matrix(0.866 0.5 -0.5 0.866 69.4001 -30.8435)" fill="#13110C" width="135.5" height="2.5"/>
			</g>
		</g>
		<g>
			<g>
				
					<rect x="24.5" y="112.8" transform="matrix(0.7071 0.7071 -0.7071 0.7071 107.6902 -31.8212)" fill="#13110C" width="135.5" height="2.5"/>
			</g>
		</g>
		<g>
			<g>
				
					<rect x="24.5" y="112.8" transform="matrix(0.5 0.866 -0.866 0.5 144.9251 -22.8557)" fill="#13110C" width="135.5" height="2.5"/>
			</g>
		</g>
		<g>
			<g>
				
					<rect x="24.5" y="112.8" transform="matrix(0.2588 0.9659 -0.9659 0.2588 178.5706 -4.5589)" fill="#13110C" width="135.5" height="2.5"/>
			</g>
		</g>
		<g>
			<g>
				<rect x="91" y="46.4" fill="#13110C" width="2.5" height="135.5"/>
			</g>
		</g>
	</g>
	<circle fill="#FFFFFF" cx="92.3" cy="114.1" r="56.6"/>
	<g>
		<g>
			<path fill="#FFFFFF" d="M140.8,114.1C128.1,99,111,89.8,92.3,89.8S56.4,99,43.7,114.1c12.7,15,29.7,24.3,48.5,24.3
				S128.1,129.1,140.8,114.1z"/>
			<path fill="#13110C" d="M92.3,139.6c-18.5,0-36.1-8.8-49.5-24.7l-0.7-0.8l0.7-0.8c13.4-15.9,31-24.7,49.5-24.7
				c18.5,0,36.1,8.8,49.5,24.7l0.7,0.8l-0.7,0.8C128.3,130.8,110.8,139.6,92.3,139.6z M45.4,114.1c12.8,14.8,29.4,23,46.9,23
				c17.4,0,34-8.2,46.9-23c-12.8-14.8-29.4-23-46.9-23C74.8,91.1,58.2,99.2,45.4,114.1z"/>
		</g>
	</g>
	<path fill="#B3DBD1" d="M108.4,114.3c0,8.9-7.2,16.2-16.2,16.2c-8.9,0-16.2-7.2-16.2-16.2c0-8.9,7.2-16.2,16.2-16.2
		C101.2,98.2,108.4,105.4,108.4,114.3z"/>
	<g>
		<path fill="#13110C" d="M92.3,123.7c-5.2,0-9.4-4.2-9.4-9.3c0-5.2,4.2-9.4,9.4-9.4c5.2,0,9.3,4.2,9.3,9.4
			C101.6,119.5,97.4,123.7,92.3,123.7z M92.3,107.5c-3.8,0-6.8,3.1-6.8,6.8c0,3.8,3.1,6.8,6.8,6.8c3.8,0,6.8-3.1,6.8-6.8
			C99.1,110.6,96,107.5,92.3,107.5z"/>
	</g>
</g>
</svg>
