<?xml version="1.0" encoding="utf-8"?>
<!-- Generator: Adobe Illustrator 19.1.0, SVG Export Plug-In . SVG Version: 6.00 Build 0)  -->
<!DOCTYPE svg PUBLIC "-//W3C//DTD SVG 1.1//EN" "http://www.w3.org/Graphics/SVG/1.1/DTD/svg11.dtd">
<svg version="1.1" id="Layer_1" xmlns="http://www.w3.org/2000/svg" xmlns:xlink="http://www.w3.org/1999/xlink" x="0px" y="0px"
	 viewBox="0 0 180.5 228.2" enable-background="new 0 0 180.5 228.2" xml:space="preserve">
<g>
	<g>
		<g>
			<g>
				<g>
					
						<rect x="91" y="46.3" transform="matrix(0.9662 0.2578 -0.2578 0.9662 32.5317 -19.9293)" fill="#13110C" width="2.5" height="135.5"/>
				</g>
			</g>
			<g>
				<g>
					
						<rect x="91" y="46.4" transform="matrix(0.8662 0.4996 -0.4996 0.8662 69.3369 -30.8351)" fill="#13110C" width="2.5" height="135.5"/>
				</g>
			</g>
			<g>
				<g>
					
						<rect x="91" y="46.4" transform="matrix(0.7072 0.7071 -0.7071 0.7072 107.6787 -31.8228)" fill="#13110C" width="2.5" height="135.5"/>
				</g>
			</g>
			<g>
				<g>
					
						<rect x="91" y="46.4" transform="matrix(0.5004 0.8658 -0.8658 0.5004 144.8659 -22.8776)" fill="#13110C" width="2.5" height="135.5"/>
				</g>
			</g>
			<g>
				<g>
					
						<rect x="91" y="46.4" transform="matrix(0.2589 0.9659 -0.9659 0.2589 178.5548 -4.5695)" fill="#13110C" width="2.5" height="135.5"/>
				</g>
			</g>
			<g>
				<g>
					<rect x="24.5" y="112.8" fill="#13110C" width="135.5" height="2.5"/>
				</g>
			</g>
			<g>
				<g>
					
						<rect x="24.5" y="112.8" transform="matrix(0.9659 0.2588 -0.2588 0.9659 32.6682 -19.9898)" fill="#13110C" width="135.5" height="2.5"/>
				</g>
			</g>
			<g>
				<g>
					
						<rect x="24.5" y="112.8" transform="matrix(0.866 0.5 -0.5 0.866 69.3999 -30.8438)" fill="#13110C" width="135.5" height="2.5"/>
				</g>
			</g>
			<g>
				<g>
					
						<rect x="24.5" y="112.8" transform="matrix(0.7071 0.7071 -0.7071 0.7071 107.69 -31.8216)" fill="#13110C" width="135.5" height="2.5"/>
				</g>
			</g>
			<g>
				<g>
					
						<rect x="24.5" y="112.8" transform="matrix(0.5 0.866 -0.866 0.5 144.9249 -22.8563)" fill="#13110C" width="135.5" height="2.5"/>
				</g>
			</g>
			<g>
				<g>
					
						<rect x="24.5" y="112.8" transform="matrix(0.2588 0.9659 -0.9659 0.2588 178.5704 -4.5597)" fill="#13110C" width="135.5" height="2.5"/>
				</g>
			</g>
			<g>
				<g>
					<rect x="91" y="46.4" fill="#13110C" width="2.5" height="135.5"/>
				</g>
			</g>
		</g>
		<circle fill="#FFFFFF" cx="92.3" cy="114.1" r="56.6"/>
	</g>
	<g>
		<path stroke="#000000" stroke-miterlimit="10" d="M54.5,103.5c-0.1,1.9-0.3,3.8-0.4,5.7c-0.2,3.8-0.8,7.6-1.1,11.4
			c0,1.7-0.4,4.2,0.5,5.7c0.1,0.2,0.3,0.3,0.4,0.5c0.4,0.1,0.5,0.2,0.9,0.1c0.1,0,0-0.1,0.1-0.2c0.2-0.1,0.5-0.2,0.7-0.3
			c0.3-0.1,0.5-0.3,0.7-0.4c1.1-0.9,2.4,0.6,1.3,1.5l0,0c-1.4,0.8-2.9,1.6-4.5,0.9c-0.3-0.1-0.6-0.4-0.9-0.6
			c-0.2-0.3-0.5-0.5-0.6-0.8c-1.1-1.9-0.9-4.4-0.9-6.5c0.2-3.8,0.7-7.6,1.2-11.5c0.3-1.9,0.5-3.8,0.9-5.7
			C52.9,102.1,54.7,102.3,54.5,103.5L54.5,103.5z M54.5,103.5"/>
		<path stroke="#000000" stroke-miterlimit="10" d="M48,111.7c1.9-0.2,3.8-0.6,5.6-0.8l1.7-0.2c1.5-0.6,2.3,1.5,0.8,2.1l0,0
			l-1.7,0.2c-2,0.2-4,0.5-6,0.5C47.2,113.7,46.8,112,48,111.7L48,111.7z M48,111.7"/>
		<path stroke="#000000" stroke-miterlimit="10" d="M59.5,120.5c0.8-0.3,1.7,0.1,2,0.9c0.1,0.2,0.1,0.3,0.1,0.5
			c-0.2,1.4-1,2.2-2.3,2.6c-1.1,0.2-2.3,0-2.8-1.2c-0.1-0.2-0.1-0.4-0.1-0.6c0-1.3,0.7-2.4,1.6-3.4c0.5-0.5,1.6-1.6,2.4-1.6
			c0.4,0,0.7,0.1,1.1,0.2c0.2,0.2,0.3,0.3,0.5,0.5c0.8,1,0.8,2.8,0.8,4c0,2.4-0.3,4.8-0.9,7.1c-0.5,1.5-1.2,3-2.5,4
			c-0.2,0.1-0.4,0.2-0.6,0.4c-1.2,0.5-2.3,0.4-2.9-0.8c-0.1-0.2-0.1-0.4-0.2-0.5c-0.2-1.3,0.5-2.3,1.4-3.1c0.5-0.4,1.2-0.7,1.8-1
			c1.1-0.8,2.2,0.8,1.1,1.6l0,0c-0.5,0.2-1,0.4-1.5,0.8c-0.4,0.3-1,0.7-1,1.3c0.2,0.7,0.5,0.2-0.1,0.5c-0.1,0,0.2,0,0.2,0
			c1.2-0.7,1.8-2,2.2-3.3c0.5-2.2,0.8-4.5,0.9-6.7c0-0.8,0-1.5-0.1-2.3c0-0.2-0.1-0.4-0.2-0.6c0,0,0,0,0,0c0.2,0,0.3,0,0.5,0
			c0,0-0.1-0.1-0.1,0c-0.1,0-0.2,0.1-0.3,0.1C60.3,119.8,59.9,120.2,59.5,120.5c-0.5,0.6-1,1.3-1.3,2c0,0.1,0,0.2,0.1,0.3
			c0,0,0.2,0,0.1,0c-0.1,0-0.2,0-0.3,0c0,0.1,0.1,0,0.2,0.1c0.5-0.1,0.8-0.3,1.2-0.6c0.1-0.1,0.1-0.2,0.2-0.2c0,0,0.1,0,0.1-0.1
			c0.1-0.1,0.6,0.1,0.5-0.1C59.3,122.6,58.5,121.1,59.5,120.5L59.5,120.5z M59.5,120.5"/>
		<path stroke="#000000" stroke-miterlimit="10" d="M80.8,112.6c0.6-1.2,0.9-2.5,1.3-3.8c0.5-2.2,1-4.4,1.3-6.6
			c0.1-0.7,0.1-1.4,0.2-2.2c0-1.3,1.9-1.3,1.9,0l0,0c0,0.8,0,1.6,0,2.4c-0.3,2.3-0.6,4.6-1.3,6.8c-0.4,1.4-0.8,2.8-1.7,4
			C81.8,114.5,80.2,113.7,80.8,112.6L80.8,112.6z M80.8,112.6"/>
		<path stroke="#000000" stroke-miterlimit="10" d="M89.9,100.3c0,0.1,0,0.2,0,0.3c0,0.2,0,1.6,0,1.6c0,1.4-0.1,2.8-0.2,4.2
			c-0.1,2.4-0.3,4.8,0.4,7.2c0.2,0.4,0.2,0.7,0.8,0.6c1.2,0.6,0.3,2.3-0.9,1.7l0,0c-0.3-0.1-0.5-0.2-0.8-0.3
			c-0.6-0.4-0.7-0.8-1.1-1.4c-0.1-0.3-0.2-0.6-0.3-1c-0.5-2.2-0.4-4.5-0.3-6.8c0.1-2.1,0.3-4.1,0.6-6.1
			C88.2,99.1,89.9,99.1,89.9,100.3L89.9,100.3z M89.9,100.3"/>
		<path stroke="#000000" stroke-miterlimit="10" d="M82,99.1c-0.1,0-1,0-1,0c0.1-1.8-0.3-1.7,0.7-1.7c2.6-0.1,5.1-0.2,7.7-0.4
			c1.6-0.1,3.2-0.2,4.8-0.4c1.5-0.5,2.2,1.6,0.7,2.1l0,0c-1.6,0.1-3.2,0.3-4.8,0.4c-2.6,0.1-5.3,0.3-7.9,0.1c-1-0.1-0.7,0.1-0.8-1.7
			c0,0,0.9,0,1,0C83.6,97.7,83.1,99.4,82,99.1L82,99.1z M82,99.1"/>
		<path stroke="#000000" stroke-miterlimit="10" d="M80.2,119c1.4-0.4,2.8-0.6,4.2-0.9c2.7-0.4,5.3-0.7,8-1l1.2-0.1
			c1.4-0.5,2.1,1.5,0.7,2l0,0l-1.2,0.1c-2.6,0.3-5.3,0.6-8,0.9c-1.4,0.2-2.8,0.4-4.2,0.5C79.8,121.1,79,119.6,80.2,119L80.2,119z
			 M80.2,119"/>
		<path stroke="#000000" stroke-miterlimit="10" d="M85.1,126.5c-0.1-0.7,0.2-1.4,0.6-2c0.5-0.6,1.3-1.2,2.2-1.2
			c0.3,0,0.7,0.1,1,0.1c1.3,0.6,1.5,1.5,1.1,2.8c-0.5,1.2-1.3,2.2-2.1,3.1c-0.5,0.7-1.7,1.5-2,2.2c0.1,0,0.1-0.2,0.2-0.3
			c0.1,0,1.1-0.1,1.2-0.1c1.2-0.1,2.3-0.1,3.4-0.3c0.2,0,0.3-0.1,0.5-0.1c1.2-0.5,2,1.2,0.8,1.7l0,0l-0.6,0.1
			c-1.5,0.2-3,0.4-4.6,0.3c-1,0-2.3-0.1-2.6-1.4c0-0.2,0-0.4,0-0.6c0-0.2,0.1-0.3,0.1-0.5c0.4-1,1.3-1.6,2-2.4
			c0.7-0.8,1.4-1.6,1.9-2.5c0.2-0.4,0.4-0.6-0.1-0.7c0.1,0,0.3,0,0.3,0c0-0.1-0.2,0-0.3,0c-0.4,0-0.7,0.2-0.9,0.4
			c-0.3,0.4-0.4,0.5-0.4,1C86.8,127.7,85.1,127.7,85.1,126.5L85.1,126.5z M85.1,126.5"/>
		<path stroke="#000000" stroke-miterlimit="10" d="M103.3,115.7c1.2-0.1,2.4-0.2,3.6-0.3c1-0.1,2-0.1,3-0.2
			c1.4-0.4,1.9,1.5,0.6,1.9l0,0c-1,0-2,0.1-2.9,0.1c-1.2,0.1-2.5,0.2-3.7,0.1C102.6,117.6,102.1,116,103.3,115.7L103.3,115.7z
			 M103.3,115.7"/>
		<path stroke="#000000" stroke-miterlimit="10" d="M133.7,109.4c-0.7,2.4-2.1,4.4-3.5,6.4c-1.5,2-3.1,3.8-5,5.4
			c-1,0.8-1.5,1.1-2.5,1.9c-1.7,1-3.6,2.1-5.6,1.5c-0.3-0.1-0.5-0.3-0.7-0.4c-0.2-0.2-0.4-0.4-0.5-0.6c-0.6-1-0.4-2.2,0-3.2
			c0.6-1.2,1.3-1.7,2.5-2c1.7-0.1,2.6,0.5,3.9,1.4c1.1,0.9,2.2,1.8,3.3,2.7c0.2,0.1,0.3,0.2,0.5,0.3c0.2,0.1,0.8,0.4,1,0.5
			c0.2,0.1,1,0.2,0.7,0c0.5-0.1,0.9-0.4,1.4-0.8c1-1,2.3,0.4,1.4,1.4l0,0c-0.6,0.5-1.3,0.9-2,1.1c-0.4,0-0.8,0.1-1.2,0.1
			c-1.2,0-2.2-0.7-3.1-1.3c-1.1-0.8-2.2-1.8-3.3-2.7c-0.4-0.3-0.9-0.6-1.4-0.8c-0.1,0-0.2-0.1-0.4-0.1c-0.1,0-0.3,0-0.4-0.1
			c-0.1,0,0.1,0,0.2-0.1c-0.8,0.1-1.1,0.2-1.5,0.9c-0.3,0.6-0.5,1.3,0,1.8c0.1,0,0.2,0.1,0.3,0.1c0,0-0.1,0.1,0,0.1
			c1.3,0.1,2.4-0.8,3.4-1.4c0.9-0.7,1.5-1.1,2.3-1.8c1.8-1.5,3.4-3.2,4.8-5.1c1.4-1.8,2.8-3.7,3.8-5.8
			C132.3,107.7,134,108.2,133.7,109.4L133.7,109.4z M133.7,109.4"/>
		<path stroke="#000000" stroke-miterlimit="10" d="M79.5,95c-0.4,0.7-0.6,1.5-0.8,2.3c-0.5,1.9-0.3,1.4-0.7,3.5
			c-0.5,3.2-1.1,6.4-1.3,9.7c-0.1,2.3-0.1,2.7,0,4.9c0.2,3.3,0.6,6.7,2.3,9.6c0.3,0.4,0.6,0.9,0.9,1.3c1.4,1.5,0.6,0.8,2.1,2
			c1,1.2-0.6,2.6-1.7,1.5l0,0c-1.7-1.5-0.9-0.7-2.5-2.4c-0.3-0.5-0.7-1-1-1.5c-1.8-3.1-2.4-6.8-2.7-10.4c0-0.9-0.1-1.7-0.1-2.6
			c0-4.2,0.7-8.4,1.6-12.6c0.5-2,0.4-1.8,1-3.6c0.4-1.1,0.7-2.2,1.5-3C79.1,92.9,80.3,94.1,79.5,95L79.5,95z M79.5,95"/>
		<path stroke="#000000" stroke-miterlimit="10" d="M133.7,95c1.4,1.4,2,3.3,2.6,5.1c1,3.7,1.4,7.5,1.5,11.2c0,0.9,0,1.8,0,2.7
			c-0.1,3.5-0.6,7-1.4,10.4c-0.5,1.9-0.7,2.4-1.3,4.3l-0.7,1.8c-0.5,1.6-2.7,0.9-2.2-0.6l0,0l0.6-1.8c0.5-1.8,0.7-2.3,1.2-4.1
			c0.8-3.3,1.2-6.6,1.3-9.9c0.1-4.5-0.1-9-1-13.4c-0.4-1.6-0.9-3.2-1.8-4.6C131.6,95.1,132.9,94,133.7,95L133.7,95z M133.7,95"/>
	</g>
</g>
</svg>
