<?xml version="1.0" encoding="utf-8"?>
<!-- Generator: Adobe Illustrator 19.1.0, SVG Export Plug-In . SVG Version: 6.00 Build 0)  -->
<!DOCTYPE svg PUBLIC "-//W3C//DTD SVG 1.1//EN" "http://www.w3.org/Graphics/SVG/1.1/DTD/svg11.dtd">
<svg version="1.1" id="Layer_1" xmlns="http://www.w3.org/2000/svg" xmlns:xlink="http://www.w3.org/1999/xlink" x="0px" y="0px"
	 viewBox="0 0 180.5 228.2" enable-background="new 0 0 180.5 228.2" xml:space="preserve">
<g>
	<g>
		<g>
			<g>
				<g>
					
						<rect x="91" y="46.3" transform="matrix(0.9662 0.2578 -0.2578 0.9662 32.5317 -19.9293)" fill="#13110C" width="2.5" height="135.5"/>
				</g>
			</g>
			<g>
				<g>
					
						<rect x="91" y="46.4" transform="matrix(0.8662 0.4996 -0.4996 0.8662 69.3369 -30.8351)" fill="#13110C" width="2.5" height="135.5"/>
				</g>
			</g>
			<g>
				<g>
					
						<rect x="91" y="46.4" transform="matrix(0.7072 0.7071 -0.7071 0.7072 107.6787 -31.8228)" fill="#13110C" width="2.5" height="135.5"/>
				</g>
			</g>
			<g>
				<g>
					
						<rect x="91" y="46.4" transform="matrix(0.5004 0.8658 -0.8658 0.5004 144.8659 -22.8776)" fill="#13110C" width="2.5" height="135.5"/>
				</g>
			</g>
			<g>
				<g>
					
						<rect x="91" y="46.4" transform="matrix(0.2589 0.9659 -0.9659 0.2589 178.5548 -4.5695)" fill="#13110C" width="2.5" height="135.5"/>
				</g>
			</g>
			<g>
				<g>
					<rect x="24.5" y="112.8" fill="#13110C" width="135.5" height="2.5"/>
				</g>
			</g>
			<g>
				<g>
					
						<rect x="24.5" y="112.8" transform="matrix(0.9659 0.2588 -0.2588 0.9659 32.6682 -19.9898)" fill="#13110C" width="135.5" height="2.5"/>
				</g>
			</g>
			<g>
				<g>
					
						<rect x="24.5" y="112.8" transform="matrix(0.866 0.5 -0.5 0.866 69.3999 -30.8438)" fill="#13110C" width="135.5" height="2.5"/>
				</g>
			</g>
			<g>
				<g>
					
						<rect x="24.5" y="112.8" transform="matrix(0.7071 0.7071 -0.7071 0.7071 107.69 -31.8216)" fill="#13110C" width="135.5" height="2.5"/>
				</g>
			</g>
			<g>
				<g>
					
						<rect x="24.5" y="112.8" transform="matrix(0.5 0.866 -0.866 0.5 144.9249 -22.8563)" fill="#13110C" width="135.5" height="2.5"/>
				</g>
			</g>
			<g>
				<g>
					
						<rect x="24.5" y="112.8" transform="matrix(0.2588 0.9659 -0.9659 0.2588 178.5704 -4.5597)" fill="#13110C" width="135.5" height="2.5"/>
				</g>
			</g>
			<g>
				<g>
					<rect x="91" y="46.4" fill="#13110C" width="2.5" height="135.5"/>
				</g>
			</g>
		</g>
		<circle fill="#FFFFFF" cx="92.3" cy="114.1" r="56.6"/>
	</g>
	<g>
		<path fill="#231F20" d="M132.7,136.9c1.9,1.5,2.3,4.1,1,5.9l0,0c-1.4,1.8-4.1,2-6,0.6l-33.6-26c-1.9-1.5-2.3-4.1-1-5.9l0,0
			c1.4-1.8,4.1-2,6-0.6L132.7,136.9z"/>
		<circle fill="#231F20" cx="84.4" cy="105" r="22"/>
		<circle fill="#FFFFFF" cx="84.4" cy="105" r="19"/>
		<circle fill="#B3DBD1" stroke="#010202" stroke-width="1.3834" stroke-miterlimit="10" cx="84.3" cy="105" r="15.9"/>
	</g>
</g>
</svg>
