<?xml version="1.0" encoding="utf-8"?>
<!-- Generator: Adobe Illustrator 19.1.0, SVG Export Plug-In . SVG Version: 6.00 Build 0)  -->
<!DOCTYPE svg PUBLIC "-//W3C//DTD SVG 1.1//EN" "http://www.w3.org/Graphics/SVG/1.1/DTD/svg11.dtd">
<svg version="1.1" id="Layer_1" xmlns="http://www.w3.org/2000/svg" xmlns:xlink="http://www.w3.org/1999/xlink" x="0px" y="0px"
	 viewBox="0 0 180.5 228.2" enable-background="new 0 0 180.5 228.2" xml:space="preserve">
<g>
	<g>
		<g>
			<g>
				<g>
					
						<rect x="91" y="46.3" transform="matrix(0.9662 0.2578 -0.2578 0.9662 32.5317 -19.9293)" fill="#13110C" width="2.5" height="135.5"/>
				</g>
			</g>
			<g>
				<g>
					
						<rect x="91" y="46.4" transform="matrix(0.8662 0.4996 -0.4996 0.8662 69.3369 -30.8351)" fill="#13110C" width="2.5" height="135.5"/>
				</g>
			</g>
			<g>
				<g>
					
						<rect x="91" y="46.4" transform="matrix(0.7072 0.7071 -0.7071 0.7072 107.6787 -31.8228)" fill="#13110C" width="2.5" height="135.5"/>
				</g>
			</g>
			<g>
				<g>
					
						<rect x="91" y="46.4" transform="matrix(0.5004 0.8658 -0.8658 0.5004 144.8659 -22.8776)" fill="#13110C" width="2.5" height="135.5"/>
				</g>
			</g>
			<g>
				<g>
					
						<rect x="91" y="46.4" transform="matrix(0.2589 0.9659 -0.9659 0.2589 178.5548 -4.5695)" fill="#13110C" width="2.5" height="135.5"/>
				</g>
			</g>
			<g>
				<g>
					<rect x="24.5" y="112.8" fill="#13110C" width="135.5" height="2.5"/>
				</g>
			</g>
			<g>
				<g>
					
						<rect x="24.5" y="112.8" transform="matrix(0.9659 0.2588 -0.2588 0.9659 32.6682 -19.9898)" fill="#13110C" width="135.5" height="2.5"/>
				</g>
			</g>
			<g>
				<g>
					
						<rect x="24.5" y="112.8" transform="matrix(0.866 0.5 -0.5 0.866 69.3999 -30.8438)" fill="#13110C" width="135.5" height="2.5"/>
				</g>
			</g>
			<g>
				<g>
					
						<rect x="24.5" y="112.8" transform="matrix(0.7071 0.7071 -0.7071 0.7071 107.69 -31.8216)" fill="#13110C" width="135.5" height="2.5"/>
				</g>
			</g>
			<g>
				<g>
					
						<rect x="24.5" y="112.8" transform="matrix(0.5 0.866 -0.866 0.5 144.9249 -22.8563)" fill="#13110C" width="135.5" height="2.5"/>
				</g>
			</g>
			<g>
				<g>
					
						<rect x="24.5" y="112.8" transform="matrix(0.2588 0.9659 -0.9659 0.2588 178.5704 -4.5597)" fill="#13110C" width="135.5" height="2.5"/>
				</g>
			</g>
			<g>
				<g>
					<rect x="91" y="46.4" fill="#13110C" width="2.5" height="135.5"/>
				</g>
			</g>
		</g>
		<circle fill="#FFFFFF" cx="92.3" cy="114.1" r="56.6"/>
	</g>
	<g>
		<g>
			<path stroke="#FFFFFF" stroke-width="2" stroke-miterlimit="10" d="M69.8,110.1c-0.4-1.1-0.7-2.3-0.7-3.6
				c0-5.6,4.5-10.1,10.1-10.1c1.3,0,2.5,0.2,3.6,0.7c1.9-1.7,4-3.1,6.3-4.2c-2.8-2-6.2-3.2-9.9-3.2c-9.3,0-16.8,7.5-16.8,16.8
				c0,3.4,1,6.6,2.8,9.3C66.4,113.7,68,111.8,69.8,110.1z"/>
			<path stroke="#FFFFFF" stroke-width="2" stroke-miterlimit="10" d="M82.6,81.3c0,2.8-1.5,5-3.4,5c-1.9,0-3.4-2.3-3.4-5
				c0-2.8,1.5-5,3.4-5C81.1,76.2,82.6,78.5,82.6,81.3z"/>
			<path stroke="#FFFFFF" stroke-width="2" stroke-miterlimit="10" d="M54,109.9c-2.8,0-5-1.5-5-3.4s2.3-3.4,5-3.4
				c2.8,0,5,1.5,5,3.4S56.7,109.9,54,109.9z"/>
			<path stroke="#FFFFFF" stroke-width="2" stroke-miterlimit="10" d="M99.8,90.6c1.6-1.9,2-4.3,0.8-5.5c-1.3-1.3-4-0.8-5.9,1.2
				C93,88,92.4,90.1,93,91.5C95.2,90.9,97.5,90.6,99.8,90.6z"/>
			<path stroke="#FFFFFF" stroke-width="2" stroke-miterlimit="10" d="M62.4,126.6c0-2.2,0.3-4.4,1-6.5c-1.3-0.1-3,0.5-4.4,1.9
				c-2,2-2.5,4.6-1.2,5.9c1,1,2.9,0.9,4.7-0.2C62.4,127.4,62.4,127,62.4,126.6z"/>
			<path stroke="#FFFFFF" stroke-width="2" stroke-miterlimit="10" d="M63.7,86.3c2,2,2.5,4.6,1.2,5.9c-1.3,1.3-4,0.8-5.9-1.2
				c-2-2-2.5-4.6-1.2-5.9C59.1,83.8,61.8,84.3,63.7,86.3z"/>
		</g>
	</g>
	<path stroke="#FFFFFF" stroke-width="2" stroke-miterlimit="10" d="M121.3,115.2c-0.2-11.1-9-20.5-20.2-20.5
		c-9.6,0-17.8,6.8-20.1,15.7c-7.4,1.8-12.9,8.5-12.9,16.5c0,9.4,7.2,16.6,16.6,16.6h33.6c8,0,14.8-6.1,14.8-14.1
		C133.1,122.3,128,116.5,121.3,115.2z M118.6,136.8H84.9c-5.6,0-10.1-4.2-10.1-9.9c0-4.7,3.2-8.8,7.8-9.9l3.9-1l1-3.9
		c1.6-6.2,7.4-10.7,13.6-10.7c7.3,0,13.3,6.2,13.4,13.8l0.1,5.5l5.4,1c3.7,0.7,6.3,3.9,6.3,7.6C126.3,133.7,122.8,136.8,118.6,136.8
		z"/>
</g>
</svg>
