<?xml version="1.0" encoding="utf-8"?>
<!-- Generator: Adobe Illustrator 19.1.0, SVG Export Plug-In . SVG Version: 6.00 Build 0)  -->
<!DOCTYPE svg PUBLIC "-//W3C//DTD SVG 1.1//EN" "http://www.w3.org/Graphics/SVG/1.1/DTD/svg11.dtd">
<svg version="1.1" id="Layer_1" xmlns="http://www.w3.org/2000/svg" xmlns:xlink="http://www.w3.org/1999/xlink" x="0px" y="0px"
	 viewBox="0 0 180.5 228.2" enable-background="new 0 0 180.5 228.2" xml:space="preserve">
<path fill="#4E4E4E" d="M135.3,148H41.4c-11.7,0-21.3-9.6-21.3-21.3c0-11.1,8.6-20.3,19.5-21.2c1.9-14.1,14.2-25.1,28.7-25.1
	c2.7,0,5.4,0.4,8,1.1C81.6,70.4,93.1,63,105.7,63c18,0,32.6,14.6,32.6,32.6c0,0,0,0.1,0,0.1c13,1.5,23.2,12.6,23.2,26
	C161.5,136.3,149.8,148,135.3,148z M41.4,112c-8.2,0-14.8,6.6-14.8,14.8c0,8.2,6.6,14.8,14.8,14.8h93.9c10.9,0,19.7-8.8,19.7-19.7
	s-8.8-19.7-19.7-19.7l-0.3,0l-3.7,0.1l0.4-3.7c0.1-1,0.2-1.9,0.2-2.9c0-14.4-11.7-26.1-26.1-26.1c-11,0-20.8,6.9-24.6,17.2L80,90
	l-3.1-1.3c-2.7-1.1-5.6-1.7-8.6-1.7c-12.1,0-22.1,9.8-22.4,21.9l-0.1,3.4l-3.4-0.2C42,112,41.7,112,41.4,112z"/>
<path fill="#FFFFFF" d="M41.4,112c-8.2,0-14.8,6.6-14.8,14.8c0,8.2,6.6,14.8,14.8,14.8h93.9c10.9,0,19.7-8.8,19.7-19.7
	s-8.8-19.7-19.7-19.7l-0.3,0l-3.7,0.1l0.4-3.7c0.1-1,0.2-1.9,0.2-2.9c0-14.4-11.7-26.1-26.1-26.1c-11,0-20.8,6.9-24.6,17.2L80,90
	l-3.1-1.3c-2.7-1.1-5.6-1.7-8.6-1.7c-12.1,0-22.1,9.8-22.4,21.9l-0.1,3.4l-3.4-0.2C42,112,41.7,112,41.4,112z"/>
<g>
	<path fill="#4E4E4E" d="M61.9,110.3v-9.3h-1.6v-1.6H70v3.8h-1.5v-2.2h-4.7v3.7h4v1.6h-4v4.1h1.6v1.6h-5.1v-1.6H61.9z"/>
	<path fill="#4E4E4E" d="M72.1,110.3v-5.6h-1.3v-1.5h3v7.2h1.3v1.5h-4.4v-1.5H72.1z M71.8,100.2c0-0.3,0.1-0.5,0.3-0.7
		s0.4-0.3,0.7-0.3c0.3,0,0.5,0.1,0.7,0.3c0.2,0.2,0.3,0.4,0.3,0.7s-0.1,0.5-0.3,0.7s-0.4,0.3-0.7,0.3c-0.3,0-0.5-0.1-0.7-0.3
		C71.9,100.7,71.8,100.5,71.8,100.2z"/>
	<path fill="#4E4E4E" d="M79.2,103.1v1c1.1-0.8,2.1-1.2,3-1.2c0.6,0,1,0.1,1.4,0.4c0.4,0.3,0.6,0.6,0.7,1c0.1,0.4,0.2,0.9,0.2,1.7
		v4.2h1.5v1.5h-3.2v-5.7c0-0.7-0.1-1.1-0.3-1.3s-0.4-0.3-0.7-0.3c-0.8,0-1.6,0.4-2.6,1.1v4.6h1.5v1.5H76v-1.5h1.5v-5.6H76v-1.5H79.2
		z"/>
	<path fill="#4E4E4E" d="M97.4,110.3v1.5h-3.3v-1.3c-0.8,0.9-1.9,1.4-3.1,1.4c-1.1,0-2.1-0.4-3-1.2s-1.3-1.9-1.3-3.3
		c0-1.4,0.4-2.6,1.3-3.4c0.9-0.8,1.9-1.2,3-1.2c1.2,0,2.2,0.5,3.1,1.4v-3.4h-1.7v-1.5h3.4v11H97.4z M88.6,107.5c0,1,0.3,1.7,0.8,2.2
		c0.5,0.5,1.2,0.8,1.9,0.8c0.7,0,1.4-0.3,1.9-0.8c0.6-0.5,0.8-1.3,0.8-2.2c0-1-0.3-1.7-0.9-2.2c-0.6-0.5-1.2-0.7-1.9-0.7
		c-0.8,0-1.4,0.3-1.9,0.9C88.9,105.9,88.6,106.6,88.6,107.5z"/>
	<path fill="#4E4E4E" d="M102.8,107.5c0-1.3,0.4-2.4,1.3-3.3c0.9-0.9,2-1.3,3.2-1.3c1.2,0,2.3,0.4,3.2,1.3c0.9,0.8,1.3,1.9,1.3,3.3
		s-0.4,2.5-1.3,3.3c-0.9,0.8-2,1.3-3.2,1.3c-1.3,0-2.4-0.4-3.2-1.3S102.8,108.8,102.8,107.5z M104.6,107.5c0,0.9,0.3,1.6,0.8,2.1
		c0.5,0.5,1.2,0.8,2,0.8c0.8,0,1.4-0.3,2-0.8c0.5-0.6,0.8-1.3,0.8-2.1c0-0.9-0.3-1.6-0.8-2.1c-0.5-0.6-1.2-0.8-2-0.8
		c-0.8,0-1.5,0.3-2,0.8S104.6,106.7,104.6,107.5z"/>
	<path fill="#4E4E4E" d="M122.7,110.3v1.5h-3.2v-1c-1,0.8-2,1.1-2.9,1.1c-0.6,0-1.1-0.1-1.4-0.4c-0.4-0.3-0.6-0.6-0.8-1
		c-0.1-0.4-0.2-1.1-0.2-1.9v-4h-1.2v-1.5h2.9v5.3c0,0.6,0,1.1,0.1,1.3c0,0.2,0.1,0.4,0.3,0.5c0.2,0.1,0.4,0.2,0.7,0.2
		c0.8,0,1.6-0.4,2.5-1.1v-4.7H118v-1.5h3.2v7.2H122.7z"/>
	<path fill="#4E4E4E" d="M123.5,104.7v-1.5h1.1v-1.3l1.7-1.6v2.9h1.6v1.5h-1.6v4.2c0,0.7,0,1.1,0.1,1.3c0.1,0.2,0.3,0.2,0.6,0.2
		c0.3,0,0.6-0.1,0.9-0.2v1.6c-0.4,0.2-0.9,0.2-1.3,0.2c-0.5,0-0.9-0.1-1.3-0.3c-0.3-0.2-0.5-0.5-0.6-0.9c-0.1-0.3-0.1-0.9-0.1-1.8
		v-4.3H123.5z"/>
	<path fill="#4E4E4E" d="M80.5,131.1l-2.3-7.3h-1.1v-1.5h3.7v1.5h-1.1l1.7,5.2l1.7-5.2H82v-1.5h4.2v1.5h-1l1.7,5.2l1.7-5.2h-1.2
		v-1.5h3.9v1.5h-1.2l-2.3,7.3h-1.6l-2-6.3l-2,6.3H80.5z"/>
	<path fill="#4E4E4E" d="M92.9,129.4V120h-1.6v-1.5h3.3v4.8c1-0.8,2-1.2,2.9-1.2c0.6,0,1,0.1,1.4,0.4c0.4,0.2,0.6,0.6,0.8,0.9
		s0.2,1,0.2,1.7v4.4h1.5v1.5h-3.2v-5.3c0-0.7,0-1.1-0.1-1.3s-0.2-0.4-0.3-0.5c-0.2-0.1-0.4-0.2-0.7-0.2c-0.7,0-1.5,0.4-2.5,1.1v4.8
		h1.5v1.5h-4.8v-1.5H92.9z"/>
	<path fill="#4E4E4E" d="M105.4,130.8l-2.9-7h-1.4v-1.5h4.3v1.5h-1l1.9,4.8l1.8-4.8h-1.1v-1.5h4.2v1.5h-1.3l-4.3,11.1h-2.9v-1.5h1.7
		L105.4,130.8z"/>
</g>
</svg>
