<?xml version="1.0" encoding="utf-8"?>
<!-- Generator: Adobe Illustrator 19.1.0, SVG Export Plug-In . SVG Version: 6.00 Build 0)  -->
<!DOCTYPE svg PUBLIC "-//W3C//DTD SVG 1.1//EN" "http://www.w3.org/Graphics/SVG/1.1/DTD/svg11.dtd">
<svg version="1.1" id="Layer_1" xmlns="http://www.w3.org/2000/svg" xmlns:xlink="http://www.w3.org/1999/xlink" x="0px" y="0px"
	 viewBox="0 0 180.5 228.2" enable-background="new 0 0 180.5 228.2" xml:space="preserve">
<path fill="#4E4E4E" d="M134.6,147.9H41c-11.7,0-21.2-9.5-21.2-21.2c0-11.1,8.5-20.2,19.4-21.1c1.9-14.1,14.1-25,28.6-25
	c2.7,0,5.4,0.4,8,1.1c5.4-11.2,16.8-18.5,29.3-18.5c17.9,0,32.5,14.6,32.5,32.5c0,0,0,0.1,0,0.1c13,1.5,23.1,12.6,23.1,26
	C160.7,136.2,149,147.9,134.6,147.9z M41,111.9c-8.1,0-14.7,6.6-14.7,14.7c0,8.1,6.6,14.7,14.7,14.7h93.6c10.8,0,19.7-8.8,19.7-19.7
	s-8.8-19.7-19.7-19.7l-0.3,0l-3.7,0.1l0.4-3.7c0.1-1,0.2-1.9,0.2-2.9c0-14.4-11.7-26-26-26c-10.9,0-20.8,6.9-24.5,17.2L79.5,90
	l-3.1-1.3c-2.7-1.1-5.6-1.7-8.6-1.7c-12,0-22.1,9.8-22.3,21.8l-0.1,3.4L42,112C41.6,111.9,41.3,111.9,41,111.9z"/>
<path fill="#FFFFFF" d="M41,111.9c-8.1,0-14.7,6.6-14.7,14.7c0,8.1,6.6,14.7,14.7,14.7h93.6c10.8,0,19.7-8.8,19.7-19.7
	s-8.8-19.7-19.7-19.7l-0.3,0l-3.7,0.1l0.4-3.7c0.1-1,0.2-1.9,0.2-2.9c0-14.4-11.7-26-26-26c-10.9,0-20.8,6.9-24.5,17.2L79.5,90
	l-3.1-1.3c-2.7-1.1-5.6-1.7-8.6-1.7c-12,0-22.1,9.8-22.3,21.8l-0.1,3.4L42,112C41.6,111.9,41.3,111.9,41,111.9z"/>
<g>
	<path fill="#4E4E4E" d="M61.4,110.3v-9.3h-1.6v-1.6h9.6v3.7H68v-2.2h-4.7v3.7h4v1.6h-4v4.1h1.6v1.6h-5v-1.6H61.4z"/>
	<path fill="#4E4E4E" d="M71.6,110.3v-5.6h-1.3v-1.5h3v7.1h1.3v1.5h-4.4v-1.5H71.6z M71.3,100.2c0-0.3,0.1-0.5,0.3-0.7
		s0.4-0.3,0.7-0.3c0.3,0,0.5,0.1,0.7,0.3c0.2,0.2,0.3,0.4,0.3,0.7c0,0.3-0.1,0.5-0.3,0.7c-0.2,0.2-0.4,0.3-0.7,0.3
		c-0.3,0-0.5-0.1-0.7-0.3S71.3,100.5,71.3,100.2z"/>
	<path fill="#4E4E4E" d="M78.7,103.2v1c1.1-0.8,2.1-1.2,3-1.2c0.6,0,1,0.1,1.4,0.4s0.6,0.6,0.7,1c0.1,0.4,0.2,0.9,0.2,1.7v4.2h1.5
		v1.5h-3.2v-5.7c0-0.7-0.1-1.1-0.3-1.3c-0.2-0.2-0.4-0.3-0.7-0.3c-0.8,0-1.6,0.4-2.5,1.1v4.6h1.5v1.5h-4.7v-1.5H77v-5.6h-1.5v-1.5
		H78.7z"/>
	<path fill="#4E4E4E" d="M96.9,110.3v1.5h-3.3v-1.3c-0.8,0.9-1.9,1.4-3.1,1.4c-1.1,0-2.1-0.4-3-1.2c-0.9-0.8-1.3-1.9-1.3-3.3
		c0-1.4,0.4-2.5,1.3-3.4c0.9-0.8,1.9-1.2,3-1.2c1.2,0,2.2,0.5,3.1,1.4v-3.4h-1.7v-1.5h3.4v10.9H96.9z M88.1,107.5
		c0,1,0.3,1.7,0.8,2.2c0.5,0.5,1.2,0.8,1.9,0.8c0.7,0,1.4-0.3,1.9-0.8c0.6-0.5,0.8-1.3,0.8-2.2c0-1-0.3-1.7-0.9-2.2
		c-0.6-0.5-1.2-0.7-1.9-0.7c-0.8,0-1.4,0.3-1.9,0.9S88.1,106.6,88.1,107.5z"/>
	<path fill="#4E4E4E" d="M102.2,107.5c0-1.3,0.4-2.4,1.3-3.3c0.9-0.9,2-1.3,3.2-1.3c1.2,0,2.3,0.4,3.2,1.3s1.3,1.9,1.3,3.3
		c0,1.4-0.4,2.5-1.3,3.3s-2,1.3-3.2,1.3c-1.3,0-2.4-0.4-3.2-1.3C102.6,109.9,102.2,108.8,102.2,107.5z M104,107.5
		c0,0.9,0.3,1.6,0.8,2.1c0.5,0.5,1.2,0.8,2,0.8c0.8,0,1.4-0.3,2-0.8c0.5-0.6,0.8-1.2,0.8-2.1c0-0.8-0.3-1.5-0.8-2.1
		c-0.5-0.5-1.2-0.8-1.9-0.8c-0.8,0-1.5,0.3-2,0.8C104.2,106,104,106.7,104,107.5z"/>
	<path fill="#4E4E4E" d="M122.1,110.3v1.5h-3.2v-1c-1,0.8-1.9,1.1-2.9,1.1c-0.6,0-1.1-0.1-1.4-0.4c-0.4-0.3-0.6-0.6-0.8-1
		s-0.2-1-0.2-1.9v-4h-1.2v-1.5h2.9v5.3c0,0.6,0,1.1,0.1,1.3c0,0.2,0.1,0.4,0.3,0.5c0.2,0.1,0.4,0.2,0.7,0.2c0.8,0,1.6-0.4,2.5-1.1
		v-4.7h-1.5v-1.5h3.2v7.1H122.1z"/>
	<path fill="#4E4E4E" d="M122.8,104.7v-1.5h1.1v-1.3l1.7-1.6v2.9h1.6v1.5h-1.6v4.2c0,0.7,0,1.1,0.1,1.2s0.3,0.2,0.6,0.2
		c0.3,0,0.6-0.1,0.9-0.2v1.5c-0.4,0.2-0.9,0.2-1.3,0.2c-0.5,0-0.9-0.1-1.3-0.3c-0.3-0.2-0.5-0.5-0.6-0.9c-0.1-0.3-0.1-0.9-0.1-1.8
		v-4.3H122.8z"/>
	<path fill="#4E4E4E" d="M73.9,129.4v-5.6h-1.4v-1.5h3.1v1.1c1-0.8,2-1.2,3-1.2c1,0,1.7,0.4,2,1.3c1.1-0.9,2.2-1.3,3.1-1.3
		c0.6,0,1,0.1,1.4,0.4c0.4,0.2,0.6,0.6,0.7,0.9s0.2,0.9,0.2,1.7v4.3h1.5v1.5h-3.2v-5.5c0-0.5,0-0.9-0.1-1.1c0-0.2-0.2-0.4-0.3-0.5
		s-0.4-0.2-0.7-0.2c-0.7,0-1.6,0.4-2.5,1.1v4.6h1.5v1.5h-3.2v-5.7c0-0.6-0.1-1-0.2-1.2c-0.2-0.3-0.4-0.4-0.8-0.4
		c-0.6,0-1.5,0.4-2.5,1.1v4.6h1.5v1.5h-4.8v-1.5H73.9z"/>
	<path fill="#4E4E4E" d="M88.4,126.5c0-1.3,0.4-2.4,1.3-3.3c0.9-0.9,2-1.3,3.2-1.3c1.2,0,2.3,0.4,3.2,1.3s1.3,1.9,1.3,3.3
		c0,1.4-0.4,2.5-1.3,3.3c-0.9,0.8-2,1.3-3.2,1.3c-1.3,0-2.4-0.4-3.2-1.3C88.9,129,88.4,127.9,88.4,126.5z M90.2,126.5
		c0,0.9,0.3,1.6,0.8,2.1c0.5,0.5,1.2,0.8,2,0.8c0.8,0,1.4-0.3,2-0.8c0.5-0.6,0.8-1.2,0.8-2.1c0-0.8-0.3-1.5-0.8-2.1
		c-0.5-0.5-1.2-0.8-1.9-0.8c-0.8,0-1.5,0.3-2,0.8C90.5,125,90.2,125.7,90.2,126.5z"/>
	<path fill="#4E4E4E" d="M100.4,129.4v-5.6h-1.7v-1.5h3.1v1.9c0.2-0.5,0.5-0.9,0.8-1.3s0.7-0.6,1.1-0.7c0.4-0.1,0.9-0.2,1.6-0.2h0.4
		v1.7h-0.3c-0.9,0-1.5,0.1-1.9,0.3c-0.4,0.2-0.7,0.5-0.9,0.9c-0.2,0.5-0.3,1.3-0.3,2.5v1.9h1.9v1.5h-5.3v-1.5H100.4z"/>
	<path fill="#4E4E4E" d="M114.8,127h-7.3c0.1,0.8,0.4,1.4,0.9,1.9c0.5,0.5,1.2,0.7,2,0.7c1.2,0,2.1-0.5,2.8-1.4l1.5,0.7
		c-0.5,0.8-1.1,1.3-1.9,1.7c-0.8,0.4-1.6,0.5-2.4,0.5c-1.3,0-2.5-0.4-3.4-1.2c-0.9-0.8-1.4-1.9-1.4-3.3c0-1.3,0.5-2.4,1.4-3.3
		c0.9-0.9,2-1.3,3.1-1.3c1.2,0,2.2,0.4,3.2,1.3C114.2,124.1,114.7,125.3,114.8,127z M113,125.7c-0.1-0.6-0.4-1.2-0.9-1.6
		c-0.5-0.5-1.1-0.7-1.9-0.7c-0.7,0-1.3,0.2-1.7,0.7s-0.8,1-0.9,1.7H113z"/>
</g>
</svg>
