<?xml version="1.0" encoding="utf-8"?>
<!-- Generator: Adobe Illustrator 19.1.0, SVG Export Plug-In . SVG Version: 6.00 Build 0)  -->
<!DOCTYPE svg PUBLIC "-//W3C//DTD SVG 1.1//EN" "http://www.w3.org/Graphics/SVG/1.1/DTD/svg11.dtd">
<svg version="1.1" id="Layer_1" xmlns="http://www.w3.org/2000/svg" xmlns:xlink="http://www.w3.org/1999/xlink" x="0px" y="0px"
	 viewBox="0 0 256 37.6" enable-background="new 0 0 256 37.6" xml:space="preserve">
<g>
	<g>
		
			<line fill="none" stroke="#FFFFFF" stroke-width="3.753" stroke-linecap="round" stroke-linejoin="round" x1="4.7" y1="19.4" x2="4.7" y2="19.4"/>
		
			<line fill="none" stroke="#FFFFFF" stroke-width="3.753" stroke-linecap="round" stroke-linejoin="round" stroke-dasharray="0,7.4749" x1="12.2" y1="19.4" x2="247.6" y2="19.4"/>
		
			<line fill="none" stroke="#FFFFFF" stroke-width="3.753" stroke-linecap="round" stroke-linejoin="round" x1="251.4" y1="19.4" x2="251.4" y2="19.4"/>
	</g>
</g>
<g>
	<g>
		<g>
			<g>
				
					<rect x="88.8" y="8.2" transform="matrix(0.9662 0.2578 -0.2578 0.9662 7.981 -22.3077)" fill="#13110C" width="0.4" height="22.2"/>
			</g>
		</g>
		<g>
			<g>
				
					<rect x="88.8" y="8.2" transform="matrix(0.8662 0.4996 -0.4996 0.8662 21.5426 -41.913)" fill="#13110C" width="0.4" height="22.2"/>
			</g>
		</g>
		<g>
			<g>
				
					<rect x="88.8" y="8.2" transform="matrix(0.7072 0.7071 -0.7071 0.7072 39.7086 -57.3183)" fill="#13110C" width="0.4" height="22.2"/>
			</g>
		</g>
		<g>
			<g>
				
					<rect x="88.8" y="8.2" transform="matrix(0.5004 0.8658 -0.8658 0.5004 61.1833 -67.4688)" fill="#13110C" width="0.4" height="22.2"/>
			</g>
		</g>
		<g>
			<g>
				
					<rect x="88.8" y="8.2" transform="matrix(0.2589 0.9659 -0.9659 0.2589 84.6115 -71.7269)" fill="#13110C" width="0.4" height="22.2"/>
			</g>
		</g>
		<g>
			<g>
				<rect x="77.9" y="19.1" fill="#13110C" width="22.2" height="0.4"/>
			</g>
		</g>
		<g>
			<g>
				
					<rect x="77.9" y="19.1" transform="matrix(0.9659 0.2588 -0.2588 0.9659 8.0234 -22.3903)" fill="#13110C" width="22.2" height="0.4"/>
			</g>
		</g>
		<g>
			<g>
				<rect x="77.9" y="19.1" transform="matrix(0.866 0.5 -0.5 0.866 21.5693 -41.9423)" fill="#13110C" width="22.2" height="0.4"/>
			</g>
		</g>
		<g>
			<g>
				
					<rect x="77.9" y="19.1" transform="matrix(0.7071 0.7071 -0.7071 0.7071 39.7145 -57.3221)" fill="#13110C" width="22.2" height="0.4"/>
			</g>
		</g>
		<g>
			<g>
				<rect x="77.9" y="19.1" transform="matrix(0.5 0.866 -0.866 0.5 61.2204 -67.4809)" fill="#13110C" width="22.2" height="0.4"/>
			</g>
		</g>
		<g>
			<g>
				
					<rect x="77.9" y="19.1" transform="matrix(0.2588 0.9659 -0.9659 0.2588 84.6227 -71.7275)" fill="#13110C" width="22.2" height="0.4"/>
			</g>
		</g>
		<g>
			<g>
				<rect x="88.8" y="8.2" fill="#13110C" width="0.4" height="22.2"/>
			</g>
		</g>
	</g>
	<circle fill="#FFFFFF" cx="89.1" cy="19.3" r="9.3"/>
</g>
<g>
	<g>
		<g>
			<g>
				
					<rect x="166.8" y="8.2" transform="matrix(0.9662 0.2578 -0.2578 0.9662 10.616 -42.4028)" fill="#13110C" width="0.4" height="22.2"/>
			</g>
		</g>
		<g>
			<g>
				
					<rect x="166.8" y="8.2" transform="matrix(0.8662 0.4996 -0.4996 0.8662 31.9677 -80.8537)" fill="#13110C" width="0.4" height="22.2"/>
			</g>
		</g>
		<g>
			<g>
				
					<rect x="166.8" y="8.2" transform="matrix(0.7072 0.7071 -0.7071 0.7072 62.5331 -112.4267)" fill="#13110C" width="0.4" height="22.2"/>
			</g>
		</g>
		<g>
			<g>
				
					<rect x="166.8" y="8.2" transform="matrix(0.5004 0.8658 -0.8658 0.5004 100.125 -134.9507)" fill="#13110C" width="0.4" height="22.2"/>
			</g>
		</g>
		<g>
			<g>
				
					<rect x="166.8" y="8.2" transform="matrix(0.2589 0.9659 -0.9659 0.2589 142.3701 -147.0089)" fill="#13110C" width="0.4" height="22.2"/>
			</g>
		</g>
		<g>
			<g>
				<rect x="155.9" y="19.1" fill="#13110C" width="22.2" height="0.4"/>
			</g>
		</g>
		<g>
			<g>
				
					<rect x="155.9" y="19.1" transform="matrix(0.9659 0.2588 -0.2588 0.9659 10.679 -42.5621)" fill="#13110C" width="22.2" height="0.4"/>
			</g>
		</g>
		<g>
			<g>
				
					<rect x="155.9" y="19.1" transform="matrix(0.866 0.5 -0.5 0.866 32.0114 -80.9125)" fill="#13110C" width="22.2" height="0.4"/>
			</g>
		</g>
		<g>
			<g>
				
					<rect x="155.9" y="19.1" transform="matrix(0.7071 0.7071 -0.7071 0.7071 62.5433 -112.4348)" fill="#13110C" width="22.2" height="0.4"/>
			</g>
		</g>
		<g>
			<g>
				
					<rect x="155.9" y="19.1" transform="matrix(0.5 0.866 -0.866 0.5 100.1909 -134.9793)" fill="#13110C" width="22.2" height="0.4"/>
			</g>
		</g>
		<g>
			<g>
				
					<rect x="155.9" y="19.1" transform="matrix(0.2588 0.9659 -0.9659 0.2588 142.3904 -147.012)" fill="#13110C" width="22.2" height="0.4"/>
			</g>
		</g>
		<g>
			<g>
				<rect x="166.8" y="8.2" fill="#13110C" width="0.4" height="22.2"/>
			</g>
		</g>
	</g>
	<circle fill="#FFFFFF" cx="167" cy="19.3" r="9.3"/>
</g>
</svg>
