<?xml version="1.0" encoding="utf-8"?>
<!-- Generator: Adobe Illustrator 19.1.0, SVG Export Plug-In . SVG Version: 6.00 Build 0)  -->
<!DOCTYPE svg PUBLIC "-//W3C//DTD SVG 1.1//EN" "http://www.w3.org/Graphics/SVG/1.1/DTD/svg11.dtd">
<svg version="1.1" id="Layer_1" xmlns="http://www.w3.org/2000/svg" xmlns:xlink="http://www.w3.org/1999/xlink" x="0px" y="0px"
	 viewBox="0 0 180.5 228.2" enable-background="new 0 0 180.5 228.2" xml:space="preserve">
<path fill="#4E4E4E" d="M133.7,145H42c-11.5,0-20.8-9.3-20.8-20.8c0-10.9,8.4-19.8,19-20.7C42.1,89.8,54.1,79,68.2,79
	c2.7,0,5.3,0.4,7.8,1.1c5.2-10.9,16.4-18.1,28.7-18.1c17.6,0,31.8,14.3,31.8,31.8c0,0,0,0.1,0,0.1c12.7,1.5,22.6,12.3,22.6,25.4
	C159.3,133.5,147.8,145,133.7,145z M42,109.8c-8,0-14.4,6.5-14.4,14.4c0,8,6.5,14.4,14.4,14.4h91.6c10.6,0,19.2-8.6,19.2-19.2
	s-8.6-19.2-19.2-19.2l-0.3,0l-3.6,0.1l0.4-3.6c0.1-0.9,0.2-1.9,0.2-2.8c0-14.1-11.4-25.5-25.5-25.5c-10.7,0-20.3,6.8-24,16.8
	l-1.1,3.1l-3.1-1.3c-2.7-1.1-5.5-1.7-8.4-1.7c-11.8,0-21.6,9.6-21.9,21.4l-0.1,3.3l-3.3-0.2C42.7,109.8,42.3,109.8,42,109.8z"/>
<path fill="#FFFFFF" d="M42,109.8c-8,0-14.4,6.5-14.4,14.4c0,8,6.5,14.4,14.4,14.4h91.6c10.6,0,19.2-8.6,19.2-19.2
	s-8.6-19.2-19.2-19.2l-0.3,0l-3.6,0.1l0.4-3.6c0.1-0.9,0.2-1.9,0.2-2.8c0-14.1-11.4-25.5-25.5-25.5c-10.7,0-20.3,6.8-24,16.8
	l-1.1,3.1l-3.1-1.3c-2.7-1.1-5.5-1.7-8.4-1.7c-11.8,0-21.6,9.6-21.9,21.4l-0.1,3.3l-3.3-0.2C42.7,109.8,42.3,109.8,42,109.8z"/>
<polygon fill="#4E4E4E" points="117.4,110.1 95.7,93.3 95.7,101.8 80.7,101.8 80.7,118.4 95.7,118.4 95.7,126.8 "/>
</svg>
